<?xml version="1.0" standalone="no"?>
<!DOCTYPE svg PUBLIC "-//W3C//DTD SVG 20010904//EN"
 "http://www.w3.org/TR/2001/REC-SVG-20010904/DTD/svg10.dtd">
<svg version="1.0" xmlns="http://www.w3.org/2000/svg"
 width="117.000000pt" height="117.000000pt" viewBox="0 0 117.000000 117.000000"
 preserveAspectRatio="xMidYMid meet">
<metadata>
Created by potrace 1.14, written by Peter Selinger 2001-2017
</metadata>
<g transform="translate(0.000000,117.000000) scale(0.100000,-0.100000)"
fill="#000000" stroke="none">
<path d="M180 1099 c0 -6 -4 -7 -10 -4 -5 3 -15 -5 -22 -19 -13 -31 2 -76 27
-76 8 0 15 -4 15 -10 0 -5 7 -10 15 -10 8 0 15 -3 16 -7 0 -5 3 -17 5 -28 11
-45 4 -220 -8 -241 -4 -5 -4 -39 -1 -74 9 -120 9 -415 0 -427 -5 -7 -7 -13 -3
-13 3 0 -10 -17 -29 -37 -41 -43 -44 -64 -13 -93 18 -16 31 -19 67 -15 25 3
71 7 101 8 30 1 60 5 65 8 6 3 28 4 50 1 69 -7 328 -6 374 2 24 3 51 11 61 16
9 5 20 7 23 4 7 -7 107 90 107 105 0 6 4 11 10 11 15 0 30 70 30 142 0 66 -14
118 -33 118 -5 0 -7 7 -3 15 3 8 2 15 -2 15 -15 0 -126 113 -126 128 0 21 35
82 47 82 5 0 7 7 3 15 -3 8 -1 15 3 15 13 0 6 150 -7 183 -7 16 -18 34 -25 41
-6 7 -21 24 -31 39 -11 14 -23 24 -28 21 -4 -3 -8 1 -8 8 0 13 -44 38 -67 38
-7 0 -13 4 -13 8 0 5 -17 9 -37 10 -36 1 -78 8 -78 13 0 7 -243 5 -257 -2 -10
-5 -19 -5 -23 0 -3 6 -13 10 -23 10 -9 -1 -52 2 -94 5 -50 3 -78 2 -78 -5z
m420 -137 c14 -6 39 -25 55 -43 29 -32 30 -36 29 -125 0 -70 -4 -96 -16 -108
-9 -9 -21 -16 -27 -16 -6 0 -11 -4 -11 -8 0 -10 -54 -14 -91 -6 -15 3 -31 16
-38 31 -13 29 -13 151 1 159 4 3 4 14 -2 24 -16 29 -12 68 8 79 9 6 13 11 7
11 -5 1 -1 5 10 9 22 9 38 8 75 -7z m14 -442 c29 -11 117 -96 108 -104 -3 -4
0 -6 7 -6 16 0 33 -47 35 -98 3 -72 -55 -132 -134 -140 -64 -7 -115 -3 -118 7
-2 6 -7 9 -11 6 -13 -8 -50 71 -40 86 5 8 9 51 9 96 0 93 10 122 48 146 31 19
60 21 96 7z"/>
</g>
</svg>
